<?xml version="1.0" encoding="UTF-8" standalone="no"?>
<!-- Created with Inkscape (http://www.inkscape.org/) -->

<svg
   xmlns:dc="http://purl.org/dc/elements/1.1/"
   xmlns:cc="http://creativecommons.org/ns#"
   xmlns:rdf="http://www.w3.org/1999/02/22-rdf-syntax-ns#"
   xmlns:svg="http://www.w3.org/2000/svg"
   xmlns="http://www.w3.org/2000/svg"
   xmlns:sodipodi="http://sodipodi.sourceforge.net/DTD/sodipodi-0.dtd"
   xmlns:inkscape="http://www.inkscape.org/namespaces/inkscape"
   id="svg3390"
   version="1.1"
   inkscape:version="0.91 r13725"
   width="439.54446"
   height="124.94974"
   viewBox="0 0 439.54447 124.94974"
   sodipodi:docname="icanboogie.svg">
  <metadata
     id="metadata3396">
    <rdf:RDF>
      <cc:Work
         rdf:about="">
        <dc:format>image/svg+xml</dc:format>
        <dc:type
           rdf:resource="http://purl.org/dc/dcmitype/StillImage" />
        <dc:title></dc:title>
      </cc:Work>
    </rdf:RDF>
  </metadata>
  <defs
     id="defs3394" />
  <sodipodi:namedview
     pagecolor="#ffffff"
     bordercolor="#666666"
     borderopacity="1"
     objecttolerance="10"
     gridtolerance="10"
     guidetolerance="10"
     inkscape:pageopacity="0"
     inkscape:pageshadow="2"
     inkscape:window-width="961"
     inkscape:window-height="642"
     id="namedview3392"
     showgrid="false"
     inkscape:zoom="1.6909075"
     inkscape:cx="104.78503"
     inkscape:cy="85.180793"
     inkscape:window-x="0"
     inkscape:window-y="0"
     inkscape:window-maximized="0"
     inkscape:current-layer="svg3390"
     fit-margin-top="0"
     fit-margin-left="0"
     fit-margin-right="0"
     fit-margin-bottom="0" />
  <path
     style="fill:#373a3c;fill-opacity:1"
     d="m 298.82787,122.0355 c -3.469,-3.46899 -3.64413,-5.95598 -0.82894,-11.77139 2.3745,-4.90506 6.91584,-8.8344 18.31152,-15.843837 6.85271,-4.21507 7.66329,-5.00251 6.08596,-5.91221 -1.00084,-0.57722 -3.20839,-2.25018 -4.90566,-3.71771 -2.71453,-2.34707 -3.06721,-3.24979 -2.93019,-7.5 l 0.15577,-4.83177 -3.15577,4 c -1.73567,2.2 -4.63737,5.4503 -6.44822,7.22289 -5.6408,5.52161 -15.69075,6.71562 -19.65501,2.33517 -2.52006,-2.78464 -3.04794,-8.93663 -1.15547,-13.46595 2.07256,-4.96034 2.02244,-5.59211 -0.44358,-5.59211 -1.26112,0 -2.70026,1.19794 -3.75,3.12149 -3.55594,6.51596 -10.2509,14.85167 -13.11997,16.33532 -1.64131,0.84875 -5.23103,1.54319 -7.97716,1.54319 -4.02596,0 -5.29444,-0.43044 -6.54966,-2.22251 -2.71236,-3.87244 -1.96956,-10.6981 1.97266,-18.12679 2.3942,-4.51162 3.09476,-6.6507 2.17814,-6.6507 -2.61776,0 -8.67639,5.56738 -12.51474,11.5 -9.83583,15.20244 -26.49259,28.563577 -44.16271,35.424917 -14.45026,5.61107 -22.03005,4.27467 -22.03005,-3.88413 0,-5.761247 4.54334,-11.754107 14.58746,-19.241467 4.9019,-3.65411 9.75502,-8.07882 10.78471,-9.83269 1.02969,-1.75387 3.38286,-7.52635 5.22926,-12.82774 l 3.3571,-9.63889 -3.22927,-1.08293 c -4.38181,-1.46944 -4.91747,-5.33726 -1.14963,-8.30105 1.47955,-1.16381 3.60647,-2.11602 4.72649,-2.11602 3.37976,0 5.59492,-2.95151 7.81267,-10.40971 1.15959,-3.89966 3.29216,-9.34029 4.73905,-12.09029 1.44688,-2.75 2.78328,-5.3375 2.96976,-5.75 0.87621,-1.93815 -5.91425,-0.36947 -14.06856,3.25 -10.50733,4.66392 -13.76497,5.07863 -13.74666,1.75 0.0162,-2.93871 4.33798,-5.69781 16.16249,-10.3183302 16.44598,-6.42640997 29.30298,-8.06919997 35.81581,-4.57633 3.88373,2.08287 8.00932,8.9011402 8.00932,13.2368402 0,6.05631 -5.35632,14.21385 -12.14818,18.50136 -2.1185,1.33735 -3.85182,2.93386 -3.85182,3.5478 0,0.61394 1.56879,2.85272 3.4862,4.97507 2.22585,2.46374 3.71816,5.30939 4.12781,7.8712 0.35288,2.20681 0.73105,4.01239 0.84037,4.01239 0.10932,0 5.00654,-1.35 10.88272,-3 13.33617,-3.74473 15.89244,-3.79494 18.59032,-0.36514 1.13992,1.44917 2.07258,3.29732 2.07258,4.10699 0,0.80967 0.5625,1.24142 1.25,0.95945 17.86414,-7.3269 24.36032,-9.64237 25.78424,-9.19043 2.34713,0.74495 6.96576,7.56963 6.96576,10.29288 0,1.20794 0.26967,2.19625 0.59927,2.19625 0.3296,0 3.16057,-1.58092 6.29105,-3.51316 7.45145,-4.5993 16.51616,-6.36224 20.94294,-4.07307 1.68708,0.87243 3.30912,1.58623 3.60454,1.58623 0.29541,0 1.6734,-1.8 3.0622,-4 2.82619,-4.47698 5.78174,-5.21059 7.56538,-1.87783 1.55038,2.89691 0.60724,6.75464 -3.14048,12.84545 -1.73694,2.8229 -2.96999,5.32063 -2.7401,5.55051 0.56153,0.56154 10.5769,-4.7614 18.06443,-9.60082 13.03548,-8.42524 17.75716,-1.97734 9.82072,13.41111 -3.39075,6.57453 -3.78768,8.67158 -1.64138,8.67158 1.94342,0 4.57018,-2.76703 4.57701,-4.82143 0.0317,-9.54156 10.66849,-20.76412 22.35031,-23.58114 3.45129,-0.83227 7.30312,1.37551 8.66939,4.96907 1.62855,4.28341 -2.177,12.2984 -9.03205,19.02268 -3.76093,3.68919 -5.60867,6.19538 -5.00944,6.79461 1.86388,1.86388 11.63309,-1.39912 20.62945,-6.8904 13.55317,-8.27273 15.22559,-9.05456 16.54543,-7.73472 1.73435,1.73435 -1.25271,5.57842 -8.45582,10.88186 -15.45242,11.37715 -26.46027,14.6231 -37.20285,10.97021 -3.09429,-1.05218 -5.3706,-1.12636 -10.05313,-0.32763 -3.32922,0.56789 -7.26102,0.72937 -8.73735,0.35883 -6.21761,-1.56052 -7.80007,-10.20747 -3.33129,-18.203 1.45803,-2.60869 2.42854,-4.9655 2.15669,-5.23735 -0.27184,-0.27185 -2.19363,0.58409 -4.27063,1.90207 -2.077,1.31799 -5.93627,3.52134 -8.57615,4.89634 -9.77094,5.08925 -15.52544,10.65031 -23.1989,22.41905 -8.19241,12.564647 -21.29804,27.185137 -26.20712,29.236377 -5.24386,2.19111 -9.07929,1.70125 -12.35904,-1.57851 z m 12.87658,-6.48559 c 4.61238,-2.40611 16.18662,-16.960567 16.1966,-20.367007 0.005,-1.77053 -4.78894,0.8028 -12.99304,6.974237 -6.56454,4.93809 -12.00322,11.04571 -12.00322,13.47958 0,1.76885 5.34352,1.71613 8.79966,-0.0868 z M 199.63585,99.676653 c 5.92292,-2.90507 13.46894,-7.26791 16.76894,-9.69521 9.74163,-7.16542 20.6353,-19.02286 17.47668,-19.02286 -2.12338,0 -19.61433,9.47236 -30.50353,16.51942 -24.05521,15.567567 -26.43633,23.329677 -3.74209,12.19865 z m 68.98818,-25.16342 c 3.36789,-4.89935 3.76071,-8.396 1.23363,-10.98102 -2.01863,-2.06491 -10.95287,9.06103 -10.95287,13.63977 0,2.66922 0.26476,2.88706 3.15986,2.59996 2.50345,-0.24826 3.86607,-1.34069 6.55938,-5.25871 z m 29.08042,4.03463 c 1.48519,-0.7759 3.97817,-2.75512 5.53997,-4.39827 2.3672,-2.49052 2.65835,-3.32628 1.75,-5.02354 -0.5993,-1.11979 -1.08963,-2.93901 -1.08963,-4.04271 0,-3.56931 -1.99702,-3.37781 -5.65336,0.54212 -4.72299,5.06347 -6.73861,9.73219 -5.33442,12.35596 1.26166,2.35743 1.3412,2.36684 4.78744,0.56644 z m 33.22783,-1.23475 c 1.35988,-0.90501 4.83501,-3.92714 7.72251,-6.71584 4.23835,-4.09334 5.25,-5.70321 5.25,-8.35453 0,-3.80164 -1.39745,-4.1634 -6.29966,-1.63077 -8.4289,4.35463 -15.80979,13.01305 -14.34561,16.82865 0.76624,1.99679 4.57589,1.93348 7.67276,-0.12751 z m 71.39459,-8.53453 c 1.96785,-2.299 3.57792,-4.73719 3.57792,-5.41821 0,-0.68102 0.27314,-1.95002 0.60699,-2.82 0.87853,-2.28942 -2.18161,-2.02088 -5.72526,0.50242 -2.72496,1.94035 -6.88173,8.50974 -6.88173,10.87595 0,0.57191 1.08993,1.03984 2.42208,1.03984 1.60583,0 3.62784,-1.40867 6,-4.18 z m -179.91454,-1.28238 c 3.16242,-1.90431 8.05444,-4.21385 10.87116,-5.13232 6.42482,-2.09498 7.6213,-3.04681 7.6213,-6.06293 0,-3.57954 -2.55741,-6.83904 -6.90366,-8.79893 -4.78582,-2.1581 -6.85761,-1.25633 -10.84755,4.72155 -2.34493,3.51326 -8.24879,16.57867 -8.24879,18.25481 0,1.11033 2.08981,0.28021 7.50754,-2.98218 z m 15.10291,-34.13703 c 9.40927,-6.28826 13.44314,-12.49924 11.47685,-17.67098 -0.535,-1.40716 -1.78601,-2.78838 -2.78002,-3.06938 -5.02665,-1.42102 -8.72843,-1.76487 -12.37229,-1.14925 l -4.02157,0.67944 2.50285,2.31956 c 1.37656,1.27576 2.7727,3.39477 3.10253,4.70892 0.61329,2.44352 -2.84413,13.2461 -4.58354,14.32111 -0.51439,0.31791 -0.93526,1.00147 -0.93526,1.51901 0,1.75797 3.70725,0.9501 7.61045,-1.65843 z M 0.90272826,91.456103 c -2.14991096,-2.59049 -1.367888,-4.80914 12.60013874,-35.74752 9.670472,-21.41954 13.390412,-29.69844 17.860779,-39.75 2.646079,-5.94967 5.94886,-11.6917502 7.621252,-13.2500002 5.407022,-5.03798 11.919889,-2.72008997 11.919889,4.24222 0,3.2546702 -1.326744,5.9044402 -25.038948,50.0077802 -3.992059,7.425 -9.006464,16.79529 -11.143122,20.82286 C 6.6992403,92.905603 4.1769813,95.401333 0.90272826,91.456103 Z M 52.175447,89.994763 c -5.736363,-2.60401 -8.262152,-6.95818 -8.266922,-14.25123 -0.0086,-13.09306 8.309502,-26.72068 21.559255,-35.32085 6.79492,-4.41046 12.319612,-5.84207 17.334182,-4.49179 4.50945,1.21427 5.10818,2.31562 5.08808,9.35948 -0.0192,6.74513 -1.72521,10.07529 -5.37692,10.49607 -3.10709,0.35802 -3.08649,0.55399 -1.02143,-9.71999 0.67057,-3.3362 0.63433,-3.38021 -2.19798,-2.66935 -8.764632,2.19978 -24.388922,22.49565 -24.388922,31.68108 0,4.92689 2.0665,6.39358 8.90639,6.32126 9.08742,-0.0961 16.327372,-4.82303 18.189262,-11.87573 1.49751,-5.67249 5.81299,-12.08679 12.608266,-18.74026 7.137992,-6.98904 14.138762,-10.82487 19.756462,-10.82487 4.61572,0 8.53962,2.74774 8.53962,5.97994 0,2.81348 1.4943,3.23634 3.52134,0.99648 2.01426,-2.22574 5.09211,-2.61509 5.74234,-0.72642 0.67422,1.95833 -1.29393,6.84593 -4.67229,11.60295 -5.19139,7.30992 -8.4302,12.58531 -8.51279,13.86567 -0.15884,2.46263 2.78986,-0.022 10.41973,-8.77987 7.23451,-8.30406 12.71439,-12.93875 15.29828,-12.93875 3.91069,0 5.38602,6.81237 2.62965,12.14259 -0.86555,1.6738 -1.37163,3.24538 -1.12461,3.4924 0.24702,0.24702 3.65707,-2.4948 7.57789,-6.09293 7.26867,-6.67046 11.11573,-8.14679 13.92046,-5.34206 2.56695,2.56695 0.47638,10.89126 -5.00035,19.9106 -4.93349,8.1247 -2.7125,10.78953 3.5867,4.30346 3.56,-3.66562 6.82772,-4.25656 7.39008,-1.33644 0.51682,2.68362 -7.48102,10.76575 -11.80588,11.93031 -8.22079,2.21363 -12.61774,-1.50938 -11.39696,-9.65012 l 0.71616,-4.77567 -6.34313,5.65028 c -7.62647,6.79345 -10.64262,7.86123 -13.21883,4.67974 -1.757,-2.1698 -1.7641,-4.24539 -0.0353,-10.32108 0.32437,-1.13997 -2.7294,0.97484 -7.581,5.25 -4.79343,4.22391 -9.02159,7.15892 -10.31311,7.15892 -1.20391,0 -3.43059,-1.18958 -4.94817,-2.64352 l -2.75925,-2.64352 -3.58027,3.14352 c -2.978939,2.61553 -4.408392,3.14352 -8.510692,3.14352 -4.05228,0 -5.538966,-0.53432 -8.347216,-3 -1.87925,-1.65 -3.90472,-3 -4.50106,-3 -0.59633,0 -3.86409,1.7967 -7.261682,3.99267 -9.71033,6.27609 -14.66135,7.20209 -21.619383,4.04351 z m 47.421744,-13.64033 c 7.575869,-6.20785 17.273799,-20.62574 17.295549,-25.71324 0.0104,-2.41888 -0.2883,-2.72206 -2.11142,-2.14342 -7.3918,2.34606 -17.446942,13.07779 -20.920842,22.32855 -1.98038,5.27362 -1.87107,9.13226 0.25871,9.13226 0.59379,0 3.05889,-1.62187 5.478003,-3.60415 z M 387.93997,37.024323 c -2.33655,-4.36588 -0.29092,-8.22238 5.07106,-9.56016 3.01988,-0.75343 5.89376,1.4951 5.89376,4.6113 0,2.77664 -4.42641,6.88312 -7.41936,6.88312 -1.45838,0 -2.94405,-0.81053 -3.54546,-1.93426 z"
     id="path3418"
     inkscape:connector-curvature="0" />
  <path
     style="fill:#000000"
     d=""
     id="path3400"
     inkscape:connector-curvature="0" />
</svg>
